<svg xmlns="http://www.w3.org/2000/svg" viewBox="0 0 1024 1024">
  <defs>
    <linearGradient id="border" x1="0%" y1="0%" x2="100%" y2="100%">
      <stop offset="0%" stop-color="#ff3a33"/>
      <stop offset="100%" stop-color="#c11212"/>
    </linearGradient>

    <radialGradient id="bg" cx="50%" cy="45%" r="70%">
      <stop offset="0%" stop-color="#c81d1d"/>
      <stop offset="100%" stop-color="#8f0f0f"/>
    </radialGradient>

    <clipPath id="hexClip">
      <polygon points="512,120 860,320 860,704 512,904 164,704 164,320"/>
    </clipPath>
  </defs>

  <polygon
    points="512,80 900,300 900,724 512,944 124,724 124,300"
    fill="url(#border)"
  />

  <polygon
    points="512,120 860,320 860,704 512,904 164,704 164,320"
    fill="url(#bg)"
  />

  <g clip-path="url(#hexClip)" opacity="0.16">
    <polyline
      points="255,475 330,440 405,452 485,398 555,375"
      fill="none"
      stroke="#f7dccd"
      stroke-width="10"
      stroke-linecap="round"
      stroke-linejoin="round"
    />

    <circle cx="255" cy="475" r="9" fill="#f7dccd"/>
    <circle cx="330" cy="440" r="9" fill="#f7dccd"/>
    <circle cx="405" cy="452" r="9" fill="#f7dccd"/>
    <circle cx="485" cy="398" r="9" fill="#f7dccd"/>
    <circle cx="555" cy="375" r="9" fill="#f7dccd"/>

    <rect x="675" y="380" width="22" height="68" rx="4" fill="#f7dccd"/>
    <rect x="708" y="350" width="22" height="98" rx="4" fill="#f7dccd"/>
    <rect x="741" y="320" width="22" height="128" rx="4" fill="#f7dccd"/>
  </g>

  <text
    x="512"
    y="620"
    text-anchor="middle"
    font-family="Georgia, 'Times New Roman', serif"
    font-size="185"
    font-weight="700"
    fill="#f3ead3"
  >spicy</text>
</svg>
